<svg width="48" height="32" viewBox="0 0 48 32" fill="none" xmlns="http://www.w3.org/2000/svg">
<rect width="48" height="32" rx="4" fill="#016FD0"/>
<path fill-rule="evenodd" clip-rule="evenodd" d="M25.3495 27.8194V15.6548L47 15.6747V19.0348L44.4974 21.7083L47 24.4077V27.8385H43.0048L40.8816 25.4958L38.7731 27.8481L25.3495 27.8194Z" fill="white"/>
<path fill-rule="evenodd" clip-rule="evenodd" d="M26.7957 26.4854V16.9937H34.8442V19.1802H29.4021V20.6647H34.7146V22.8151H29.4021V24.2731H34.8442V26.4854H26.7957Z" fill="#016FD0"/>
<path fill-rule="evenodd" clip-rule="evenodd" d="M34.8044 26.4857L39.2571 21.7346L34.8044 16.9946H38.2508L40.9722 20.0026L43.701 16.9946H47V17.069L42.6416 21.7346L47 26.3516V26.4857H43.6678L40.8985 23.4475L38.1572 26.4857H34.8044Z" fill="#016FD0"/>
<path fill-rule="evenodd" clip-rule="evenodd" d="M26.3596 4.8584H31.5784L33.4114 9.02082V4.8584H39.8547L40.9656 7.9769L42.0803 4.8584H47V17.0222H21L26.3596 4.8584Z" fill="white"/>
<path fill-rule="evenodd" clip-rule="evenodd" d="M27.3481 6.17969L23.1364 15.6634H26.025L26.8192 13.7641H31.1245L31.9187 15.6634H34.8788L30.6847 6.17969H27.3481ZM27.7099 11.6358L28.9726 8.61673L30.2346 11.6358H27.7099Z" fill="#016FD0"/>
<path fill-rule="evenodd" clip-rule="evenodd" d="M34.8398 15.6624V6.17871L38.8999 6.19271L40.9892 12.023L43.0925 6.17871H47V15.6624L44.4856 15.6845V9.16976L42.1119 15.6624H39.8163L37.3933 9.14766V15.6624H34.8398Z" fill="#016FD0"/>
<path d="M0.5 4C0.5 2.07614 2.07614 0.5 4 0.5H44C45.9239 0.5 47.5 2.07614 47.5 4V28C47.5 29.9239 45.9239 31.5 44 31.5H4C2.07614 31.5 0.5 29.9239 0.5 28V4Z" stroke="#D8DADF"/>
</svg>
