<svg xmlns="http://www.w3.org/2000/svg" width="72" height="72" viewBox="0 0 72 72"><path d="m70.701 32.663-6.622 8.524-41.012.201 12.43-9.827 34.35-.602a1.057 1.057 0 0 1 .854 1.704Z" fill="#E3EBF5"/><path d="m38.683 70.722.338-29.535H64.08l.37 27.618a1.891 1.891 0 0 1-1.89 1.918H38.683v-.001Z" fill="#ADC8DB"/><path d="M15.64 31.607 28.91 49.266a.82.82 0 0 1-.184 1.165l-3.093 2.183a.847.847 0 0 1-1.167-.194L11.857 34.295a.67.67 0 0 1 .163-.928l2.697-1.904a.672.672 0 0 1 .923.144Z" fill="#00B2AD"/><path d="M18.372 21.82c.007.002.016.003.023.006.757.155.867 1.21.163 1.527-2.72 1.224-6 3.769-5.204 4.8l.949 1.314c.23.318.18.74-.091 1.002a.052.052 0 0 1 .009.013l-.097.07-2.137 1.51-.995.704c-.51.36-1.13.363-1.384.013l-.749-1.037a2.726 2.726 0 0 0-.382.233 2.73 2.73 0 0 0-1.121 1.786c.001.078-.013.152-.027.229a.771.771 0 0 1-.329.688L4.874 36.19a.79.79 0 0 1-1.095-.183L.751 31.814a.77.77 0 0 1 .18-1.083l2.137-1.51a.779.779 0 0 1 .761-.074c.078.01.155.023.227.048a2.78 2.78 0 0 0 2.07-.471c.126-.09.232-.19.338-.294l-.375-.519c-.222-.306-.09-.785.287-1.139.24-.182.48-.358.73-.536 4.008-2.835 6.915-5.297 11.266-4.416Z" fill="#0847A5"/><path d="m53.66 30.635-9.365-14.551a.834.834 0 0 0-.623-.403.886.886 0 0 0-.719.24l-2.608 2.326a1.264 1.264 0 0 0-.23 1.56l.114.177-7.644 6.1c-.639.562-.793 1.486-.367 2.197l5.263 8.176a1.71 1.71 0 0 0 1.97.655l.023-.016 8.913-4.402.078.12c.333.498.977.694 1.55.466l3.239-1.359a.876.876 0 0 0 .526-.55.817.817 0 0 0-.12-.736Z" fill="#FF6C00"/><path d="M62.937 24.944a.546.546 0 0 0 .19-.846c-.837-1.014-2.602-2.802-4.973-3.31-2.34-.503-4.698.346-5.922.916a.59.59 0 0 0-.207.922c.854 1.02 2.6 2.76 4.933 3.262 2.376.508 4.772-.377 5.979-.944Z" fill="#00BAB2"/><path d="M51.458 18.448c.15.369.613.478.91.21.966-.873 2.543-2.592 3.04-4.88.523-2.417-.29-4.865-.795-6.062a.442.442 0 0 0-.698-.16c-.946.828-2.658 2.602-3.178 5.004-.503 2.306.216 4.638.721 5.888Z" fill="#00B9B2"/><path d="M39.547 15.339h-.313a.434.434 0 0 1-.435-.435V9.191c0-.241.194-.435.435-.435h.313c.241 0 .435.194.435.435v5.711a.434.434 0 0 1-.435.437ZM43.369 10.81h-.313a.434.434 0 0 1-.435-.435V4.662c0-.24.194-.435.435-.435h.313c.24 0 .435.194.435.435v5.712a.437.437 0 0 1-.435.436ZM47.051 10.81h-.313a.434.434 0 0 1-.435-.435V7.056c0-.241.194-.435.435-.435h.313c.241 0 .435.194.435.435v3.318a.435.435 0 0 1-.435.436Z" fill="#183B88"/><path d="M10.835 69.048V41.544l28.186-.357-.338 29.535H12.51c-.924 0-1.674-.751-1.674-1.674Z" fill="#8CA6C7"/><path d="M10.835 41.544 4.564 53.041a1.243 1.243 0 0 0 1.089 1.836l25.74.024c.775 0 1.479-.448 1.805-1.152l5.822-12.56-28.185.355Z" fill="#ADC8DB"/></svg>