<?xml version="1.0" encoding="UTF-8"?>
<svg xmlns="http://www.w3.org/2000/svg" id="Component_30_3" data-name="Component 30 – 3" width="270" height="42" viewBox="0 0 270 42">
  <g id="Group_22063" data-name="Group 22063" transform="translate(-9563 -115)">
    <path id="Path_25672" data-name="Path 25672" d="M10.789,1.767H4.812L3.676,4.976H.051L6.21-10.6H9.369L15.562,4.976H11.937ZM5.733-.832H9.869L7.789-6.661Zm24.124.62a5.389,5.389,0,0,1-1.971,3.957A7.207,7.207,0,0,1,23.2,5.189a6.409,6.409,0,0,1-5.005-2.016,7.946,7.946,0,0,1-1.824-5.535v-.952a8.866,8.866,0,0,1,.841-3.957,6.052,6.052,0,0,1,2.4-2.626,7.055,7.055,0,0,1,3.63-.914,7.017,7.017,0,0,1,4.613,1.444,5.791,5.791,0,0,1,2.023,4.053H26.47A3.152,3.152,0,0,0,25.578-7.5a3.441,3.441,0,0,0-2.335-.679,2.962,2.962,0,0,0-2.551,1.15,6.145,6.145,0,0,0-.869,3.567v1.176a6.564,6.564,0,0,0,.812,3.69A2.9,2.9,0,0,0,23.2,2.569a3.507,3.507,0,0,0,2.358-.679,2.978,2.978,0,0,0,.892-2.1ZM44.219-8H39.151V4.976H35.742V-8h-5v-2.6H44.219ZM49.787,4.976H46.378V-10.6h3.409Zm9.272-3.861L62.809-10.6h3.8L60.843,4.976H57.287L51.548-10.6h3.784ZM78.115-1.773H71.57V2.4h7.681V4.976H68.161V-10.6H79.229V-8H71.57v3.711h6.545Z" transform="translate(9610.949 138.811)" fill="#f3af3d"></path>
    <path id="Path_25673" data-name="Path 25673" d="M10.72-1.773H4.3V2.4h7.537V4.976H.952V-10.6h10.86V-8H4.3v3.711H10.72ZM26.542-.212a5.424,5.424,0,0,1-1.935,3.957,6.982,6.982,0,0,1-4.6,1.444A6.23,6.23,0,0,1,15.1,3.173a8.043,8.043,0,0,1-1.79-5.535v-.952a9.009,9.009,0,0,1,.825-3.957A6.011,6.011,0,0,1,16.49-9.9a6.821,6.821,0,0,1,3.562-.914,6.8,6.8,0,0,1,4.527,1.444,5.829,5.829,0,0,1,1.985,4.053H23.219A3.182,3.182,0,0,0,22.344-7.5a3.333,3.333,0,0,0-2.291-.679,2.886,2.886,0,0,0-2.5,1.15A6.236,6.236,0,0,0,16.7-3.463v1.176a6.665,6.665,0,0,0,.8,3.69,2.83,2.83,0,0,0,2.514,1.166,3.4,3.4,0,0,0,2.314-.679,3,3,0,0,0,.875-2.1ZM42.074-2.458a9.073,9.073,0,0,1-.847,4.032A6.207,6.207,0,0,1,38.8,4.248a6.926,6.926,0,0,1-3.618.941,6.974,6.974,0,0,1-3.6-.93A6.274,6.274,0,0,1,29.128,1.6a8.819,8.819,0,0,1-.881-3.973v-.77a9.027,9.027,0,0,1,.864-4.048,6.259,6.259,0,0,1,2.442-2.684,6.935,6.935,0,0,1,3.607-.936,6.935,6.935,0,0,1,3.607.936A6.259,6.259,0,0,1,41.209-7.19a9,9,0,0,1,.864,4.037Zm-3.39-.706a6.344,6.344,0,0,0-.914-3.722,3.02,3.02,0,0,0-2.609-1.273,3.022,3.022,0,0,0-2.6,1.257,6.273,6.273,0,0,0-.925,3.684v.759a6.423,6.423,0,0,0,.914,3.7,3.009,3.009,0,0,0,2.631,1.316A2.984,2.984,0,0,0,37.77,1.291a6.386,6.386,0,0,0,.914-3.7ZM48.875-10.6,53.045.7,57.193-10.6h4.393V4.976H58.23V.719l.334-7.348-4.382,11.6h-2.3L47.515-6.618,47.849.719V4.976H44.5V-10.6Zm20,0L73.048.7,77.2-10.6h4.393V4.976H78.233V.719l.334-7.348-4.382,11.6h-2.3L67.518-6.618,67.852.719V4.976H64.507V-10.6Zm25.4,8.824H87.856V2.4h7.537V4.976H84.511V-10.6h10.86V-8H87.856v3.711h6.422Zm9.087,1.048H100.7v5.7H97.355V-10.6h6.032a7.024,7.024,0,0,1,4.438,1.23,4.17,4.17,0,0,1,1.561,3.476,4.642,4.642,0,0,1-.719,2.658,4.867,4.867,0,0,1-2.18,1.7L110,4.826v.15h-3.59Zm-2.665-2.6h2.7a2.838,2.838,0,0,0,1.951-.615,2.152,2.152,0,0,0,.691-1.7,2.3,2.3,0,0,0-.652-1.733,2.783,2.783,0,0,0-2-.631H100.7ZM124.673-.212a5.424,5.424,0,0,1-1.935,3.957,6.983,6.983,0,0,1-4.6,1.444,6.23,6.23,0,0,1-4.912-2.016,8.043,8.043,0,0,1-1.79-5.535v-.952a9.009,9.009,0,0,1,.825-3.957A6.011,6.011,0,0,1,114.621-9.9a6.821,6.821,0,0,1,3.562-.914,6.8,6.8,0,0,1,4.527,1.444A5.829,5.829,0,0,1,124.7-5.313H121.35a3.182,3.182,0,0,0-.875-2.187,3.333,3.333,0,0,0-2.291-.679,2.885,2.885,0,0,0-2.5,1.15,6.235,6.235,0,0,0-.853,3.567v1.176a6.665,6.665,0,0,0,.8,3.69,2.83,2.83,0,0,0,2.514,1.166,3.4,3.4,0,0,0,2.314-.679,3,3,0,0,0,.875-2.1Zm11.964-1.561h-6.422V2.4h7.537V4.976H126.87V-10.6h10.86V-8h-7.515v3.711h6.422Z" transform="translate(9695.248 138.811)" fill="#d43533"></path>
  </g>
  <rect id="Rectangle_18950" data-name="Rectangle 18950" width="42" height="42" rx="21" fill="#d43533"></rect>
  <g id="Group_1324" data-name="Group 1324" transform="translate(-173 -107)">
    <g id="LWPOLYLINE" transform="translate(185 120.25)">
      <path id="Path_25662" data-name="Path 25662" d="M201.681,126.536a1.125,1.125,0,0,0-1.121-1.035H187.44a1.125,1.125,0,0,0-1.121,1.035L185,143.036a1.125,1.125,0,0,0,1.032,1.211c.03,0,.059,0,.089,0h15.75A1.125,1.125,0,0,0,203,143.125c0-.03,0-.059,0-.09Z" transform="translate(-185 -125.5)" fill="#fff"></path>
    </g>
    <g id="CIRCLE" transform="translate(188.75 121.75)">
      <path id="Path_25663" data-name="Path 25663" d="M192.5,129.625a1.125,1.125,0,1,1,1.125,1.125,1.125,1.125,0,0,1-1.125-1.125Z" transform="translate(-192.5 -128.5)" fill="#d43533"></path>
    </g>
    <g id="CIRCLE-2" data-name="CIRCLE" transform="translate(197 121.75)">
      <path id="Path_25664" data-name="Path 25664" d="M209,129.625a1.125,1.125,0,1,1,1.125,1.125A1.125,1.125,0,0,1,209,129.625Z" transform="translate(-209 -128.5)" fill="#d43533"></path>
    </g>
    <g id="LWPOLYLINE-2" data-name="LWPOLYLINE" transform="translate(189.5 115)">
      <path id="Path_25665" data-name="Path 25665" d="M202.063,119.5v.75H203v-.75a4.5,4.5,0,0,0-9,0v.75h.938v-.75a3.563,3.563,0,0,1,7.125,0Z" transform="translate(-194 -115)" fill="#f3af3d"></path>
    </g>
    <g id="Group_22061" data-name="Group 22061" transform="translate(189.312 125.875)">
      <g id="LWPOLYLINE-3" data-name="LWPOLYLINE" transform="translate(0 3.19)">
        <path id="Path_25666" data-name="Path 25666" d="M194,143.129a.375.375,0,0,0,0,.751h1.313a.375.375,0,0,0,0-.751Z" transform="translate(-193.625 -143.129)" fill="#d43533"></path>
      </g>
      <g id="LWPOLYLINE-4" data-name="LWPOLYLINE" transform="translate(3.15)">
        <path id="Path_25667" data-name="Path 25667" d="M199.926,137.125a.375.375,0,0,1,.75,0v1.313a.375.375,0,0,1-.75,0Z" transform="translate(-199.926 -136.75)" fill="#d43533"></path>
      </g>
      <g id="LWPOLYLINE-5" data-name="LWPOLYLINE" transform="translate(4.507 0.925)">
        <path id="Path_25668" data-name="Path 25668" d="M204.208,139.241a.375.375,0,0,0-.531-.53l-.928.928a.375.375,0,0,0,.531.531Z" transform="translate(-202.638 -138.6)" fill="#d43533"></path>
      </g>
      <g id="LWPOLYLINE-6" data-name="LWPOLYLINE" transform="translate(0.944 0.925)">
        <path id="Path_25669" data-name="Path 25669" d="M195.622,139.241a.375.375,0,0,1,.531-.53l.928.928a.375.375,0,0,1-.53.531Z" transform="translate(-195.512 -138.6)" fill="#d43533"></path>
      </g>
      <g id="LWPOLYLINE-7" data-name="LWPOLYLINE" transform="translate(0.944 4.525)">
        <path id="Path_25670" data-name="Path 25670" d="M195.622,146.839a.375.375,0,0,0,.531.531l.928-.929a.375.375,0,0,0-.53-.531Z" transform="translate(-195.512 -145.8)" fill="#d43533"></path>
      </g>
      <path id="Path_25671" data-name="Path 25671" d="M205.844,147.376l-1.613-1.613.743-.406a.375.375,0,0,0-.037-.676l-4.888-2a.375.375,0,0,0-.489.489l2,4.888a.375.375,0,0,0,.676.038l.405-.744,1.613,1.612a.376.376,0,0,0,.531,0l1.061-1.061A.376.376,0,0,0,205.844,147.376Zm-1.329.786-1.7-1.7a.375.375,0,0,0-.595.085l-.267.491-1.36-3.328,3.327,1.36-.49.267a.375.375,0,0,0-.15.509.4.4,0,0,0,.064.086l1.7,1.7Z" transform="translate(-196.579 -139.703)" fill="#d43533"></path>
    </g>
  </g>
</svg>
