<svg xmlns="http://www.w3.org/2000/svg" width="72" height="72" viewBox="0 0 72 72"><path d="M25.9 7.21a.5.5 0 0 1-.192-.677l1.564-2.77a.5.5 0 0 1 .677-.19.5.5 0 0 1 .191.676l-1.563 2.77a.498.498 0 0 1-.678.191ZM28.289 8.82a.444.444 0 0 1 .101-.62l1.963-1.456a.444.444 0 1 1 .519.722l-1.963 1.455a.444.444 0 0 1-.62-.102ZM23.153 6.407a.444.444 0 0 1-.395-.49l.301-2.51a.445.445 0 1 1 .885.095l-.302 2.51a.445.445 0 0 1-.489.395Z" fill="#00418D"/><path d="M59.775 65.89H9.599c-.8 0-1.45-.65-1.45-1.45V37.431a4.554 4.554 0 0 1 4.554-4.553H56.67a4.554 4.554 0 0 1 4.553 4.553v27.012a1.45 1.45 0 0 1-1.448 1.447Z" fill="#9DC8DD"/><path d="M54.619 60.649H14.756a4.554 4.554 0 0 1-4.554-4.554V39.171a4.173 4.173 0 0 1 4.173-4.173h40.621a4.173 4.173 0 0 1 4.173 4.173v16.924a4.548 4.548 0 0 1-4.55 4.554Z" fill="#fff"/><path d="M64.882 68.216H4.493c-.849 0-1.537-.689-1.537-1.537v-.09c0-.849.69-1.536 1.537-1.536h60.39c.849 0 1.536.689 1.536 1.537v.09c0 .847-.689 1.536-1.537 1.536Z" fill="#7DA6CB"/><path d="M25.927 41.044c-1.316.67-2.881.131-3.356-1.157l-1.784-4.855a5.928 5.928 0 0 0-1.616-2.375l-.373-.333c-.38-.341-.269-.96.216-1.208l2.892-1.474c.502-.256 1.084.047 1.106.576a5.944 5.944 0 0 0 1.011 3.081l2.934 4.338c.772 1.145.293 2.734-1.03 3.407Z" fill="#0046A8"/><path d="m21.36 29.976-.84-1.65c-.394-.775-1.299-1.17-2.209-.966L5.848 30.166c-.419.095-.836-.086-1.018-.443l-1.655-3.248c-.157-.308-.016-.695.318-.862l.717-.366-.979-1.7-1.168.62c-1.067.567-1.515 1.82-1.004 2.82l2.016 3.952c.506.992 1.664 1.493 2.826 1.226l11.34-2.618c.86-.199 1.724.139 2.153.841l.277.453 1.69-.866ZM26.133 13.626l1.421-.725a.587.587 0 0 0 .256-.786l-.32-.629a.587.587 0 0 0-.787-.256l-1.42.725a.587.587 0 0 0-.256.786l.32.629a.585.585 0 0 0 .786.256Z" fill="#0046A8"/><path d="m7.604 27.42 19.068-9.718a2.145 2.145 0 0 0 .935-2.879l-2.32-4.553a2.146 2.146 0 0 0-2.879-.935L3.341 19.054a2.145 2.145 0 0 0-.934 2.878l2.32 4.554a2.145 2.145 0 0 0 2.877.934Z" fill="#00B6AD"/><path d="M35.018 40.684a1.626 1.626 0 0 1 2.297.052c.62.648.59 1.748-.057 2.369l-3.518 3.18-3.93 3.235-1.802 1.399-1.01.85c-.393.333-.62.82-.62 1.336v4.328l-1.457 3.113a.093.093 0 0 1-.097.08l-7.87-2.566c-.056-.003-.54-2.422-1.392.64l.443-6.513.781-10.329.293-2.56a5.534 5.534 0 0 1 2.42-4.186l1.028-.686.11.231c.099.23.393.97.481 1.206l.394 1.072.383 1.041 3.782-3.053 3.07-2.313c.74-.57 1.674-.677 2.317.002.714.518.845 1.68.27 2.261-.775.779-.358.42-1.009.957l.328-.27c.666-.668 1.954-1.187 2.771-.331a1.72 1.72 0 0 1 .062 2.396l-.04.043-.908.874-.49.456.972-.919a1.626 1.626 0 0 1 2.294-.134c.67.599.729 1.624.133 2.294l-1.099 1.215" fill="#FF6C00"/><path d="M26.054 58.227H15.562v2.418h10.492v-2.418Z" fill="#7DA6CB"/><path d="M26.077 58.227h-10.54c-.604 0-1.096-.49-1.096-1.096v-2.144c0-.604.49-1.096 1.096-1.096h10.54c.604 0 1.096.491 1.096 1.096v2.144a1.098 1.098 0 0 1-1.096 1.096Z" fill="#0045B0"/><path d="M57 58.57c2.359-.883 7.484-3.381 8.429-8.66a.522.522 0 0 0-.314-.575l-9.355-3.838a.487.487 0 0 0-.589.182c-.808 1.246-3.293 5.929.02 12.196a1.47 1.47 0 0 0 1.81.695Z" fill="#0060BC"/><path d="m60.77 47.552-4.982-2.044a.52.52 0 0 0-.633.199c-.824 1.285-3.247 5.94.03 12.157.174.328.453.57.778.696l4.808-11.008Z" fill="#0046A8"/><path d="m61.476 47.842 1.226-3.017-1.478-.607-1.292 2.99 1.544.634Z" fill="#5E8095"/><path d="m64.231 44.974.9-2.093-4.024-1.696-.925 2.084a.831.831 0 0 0 .366 1.07l2.51 1.074a.828.828 0 0 0 1.173-.44Z" fill="#6F93B1"/><path d="M70.348 30.87 65.13 42.883l-4.025-1.696 5.19-12.078 4.054 1.761Z" fill="#7DA6CB"/><path d="m71.208 28.934-.858 1.936-4.054-1.761.861-1.953a.782.782 0 0 1 1.045-.43l2.648 1.095c.427.193.593.71.358 1.113Z" fill="#6F93B1"/><path d="m40.036 54.02 24.905.031a.636.636 0 0 1 .492.203.549.549 0 0 1 .135.49l-.395 2.302c-.082.392-.44.678-.862.69h-.152l-.723 6.49c-.09.56-.595.981-1.199.999l-19.393-.031a1.244 1.244 0 0 1-1.175-.886l-.819-6.588h-.102c-.437-.007-.809-.298-.895-.7l-.444-2.306a.545.545 0 0 1 .128-.492.63.63 0 0 1 .5-.201Z" fill="#FF6C00"/><path d="m41.591 54.043-1.68-7.787c-.085-.4.446-.624.673-.282l3.991 6.038v2.032l-2.984-.001Z" fill="#00BEB2"/><path d="M42.595 43.966v9.928c0 .083.066.149.148.149h4.032a.148.148 0 0 0 .141-.194c-.385-1.15-2.39-7.114-3.594-10.027-.157-.384-.727-.27-.727.144Z" fill="#007668"/><path d="m49.275 44.171-4.21 9.872h4.803s.257-6.56.144-9.737c-.015-.41-.576-.514-.737-.135Z" fill="#009080"/><path d="M45.846 42.079c-.439 3.163-1.303 9.7-1.274 11.82a.149.149 0 0 0 .149.146h3.072a.149.149 0 0 0 .149-.158c-.09-1.154-.654-8.317-1.35-11.827-.083-.422-.687-.406-.746.019Z" fill="#00A997"/><path d="m52.274 45.59-6.032 8.454h4.794s1.474-4.978 1.975-8.154c.068-.426-.488-.65-.737-.3Z" fill="#00BEB2"/></svg>