<svg width="142" height="142" viewBox="0 0 142 142" fill="none" xmlns="http://www.w3.org/2000/svg">
<path d="M71.6941 136.277C110.523 136.277 142 134.502 142 132.31C142 130.12 110.523 128.344 71.6941 128.344C32.8652 128.344 1.38831 130.12 1.38831 132.31C1.38831 134.502 32.8652 136.277 71.6941 136.277Z" fill="#F1F4F8"/>
<path d="M121.072 64.6291C121.072 69.2228 119.925 78.6913 116.515 78.6913L26.8625 78.6612C23.4527 78.6612 22.5111 69.1926 22.5149 64.5951L67.6861 35.4016C67.6861 35.4016 70.5783 32.5164 72.3375 32.5164C74.307 32.5164 77.1578 35.4053 77.1578 35.4053L121.072 64.6291Z" fill="#ADC8DB"/>
<path d="M94.7968 24.1178H50.8602C49.215 24.1178 47.8813 25.4508 47.8813 27.0952V111.623C47.8813 113.268 49.215 114.601 50.8602 114.601H94.7968C96.442 114.601 97.7757 113.268 97.7757 111.623V27.0952C97.7757 25.4508 96.442 24.1178 94.7968 24.1178Z" fill="white"/>
<path d="M54.5843 62.4117C54.0359 62.4117 53.5913 62.8561 53.5913 63.4042V65.5644C53.5913 66.1124 54.0359 66.5568 54.5843 66.5568H91.0721C91.6205 66.5568 92.065 66.1124 92.065 65.5644V63.4042C92.065 62.8561 91.6205 62.4117 91.0721 62.4117H54.5843ZM54.5843 68.6295C54.0359 68.6295 53.5913 69.0739 53.5913 69.622V71.7821C53.5913 72.3303 54.0359 72.7746 54.5843 72.7746H84.9973C85.5457 72.7746 85.9902 72.3303 85.9902 71.7821V69.622C85.9902 69.0739 85.5457 68.6295 84.9973 68.6295H54.5843Z" fill="#BCEEE5"/>
<path d="M54.5843 34.2706C54.0359 34.2706 53.5913 34.715 53.5913 35.2631V58.2133C53.5913 58.7615 54.0359 59.2058 54.5843 59.2058H91.0721C91.6205 59.2058 92.065 58.7615 92.065 58.2133V35.2631C92.065 34.715 91.6205 34.2706 91.0721 34.2706H54.5843ZM54.5843 75.8829C54.0359 75.8829 53.5913 76.3273 53.5913 76.8754V79.0355C53.5913 79.5837 54.0359 80.028 54.5843 80.028H65.7604C66.3088 80.028 66.7534 79.5837 66.7534 79.0355V76.8754C66.7534 76.3273 66.3088 75.8829 65.7604 75.8829H54.5843Z" fill="#58D5BF"/>
<path d="M62.6449 19.5365H85.0363C85.038 19.5365 85.0398 19.5365 85.0415 19.5365H95.6529C97.115 19.5346 98.5176 20.1273 99.5534 21.1842C100.589 22.2412 101.173 23.676 101.177 25.1736V122.707C101.176 123.45 101.032 124.183 100.754 124.868C100.475 125.554 100.068 126.175 99.5554 126.699C99.0423 127.222 98.4337 127.637 97.7639 127.92C97.0942 128.202 96.3771 128.347 95.6529 128.345H49.9901C49.2667 128.346 48.5502 128.201 47.8817 127.918C47.2131 127.635 46.6053 127.219 46.0936 126.696C45.5817 126.172 45.176 125.551 44.8989 124.866C44.622 124.182 44.479 123.449 44.479 122.707V25.1736C44.4826 23.6772 45.0657 22.2435 46.1001 21.1867C47.1345 20.1299 48.5357 19.5365 49.9968 19.5365H62.6397C62.6414 19.5365 62.6431 19.5365 62.6449 19.5365ZM59.666 24.1178H50.8602C49.215 24.1178 47.8813 25.4508 47.8813 27.0952V111.623C47.8813 113.268 49.215 114.601 50.8602 114.601H94.7968C96.442 114.601 97.7757 113.268 97.7757 111.623V27.0952C97.7757 25.4508 96.442 24.1178 94.7968 24.1178H88.0151V24.493C88.0151 26.1374 86.6815 27.4704 85.0363 27.4704H62.6449C60.9997 27.4704 59.666 26.1374 59.666 24.493V24.1178Z" fill="#1E3C87"/>
<path d="M63.7563 22.9724C63.7563 23.2887 64.0128 23.5451 64.3293 23.5451H82.4607C82.7771 23.5451 83.0337 23.2887 83.0337 22.9724C83.0337 22.6562 82.7771 22.3998 82.4607 22.3998H64.3293C64.0128 22.3998 63.7563 22.6562 63.7563 22.9724Z" fill="white"/>
<path d="M120.176 124.837C120.189 126.419 119.579 127.942 118.479 129.072C117.378 130.203 115.878 130.85 114.305 130.872L29.0828 130.838C28.3013 130.827 27.5296 130.662 26.8117 130.352C26.0938 130.041 25.4438 129.591 24.8988 129.029C24.3539 128.465 23.9248 127.799 23.6361 127.069C23.3473 126.339 23.2045 125.559 23.216 124.773L67.8846 94.0657C67.8846 94.0657 70.5591 91.9423 72.2359 91.9498C74.1114 91.9498 76.4822 93.8093 76.4822 93.8093L120.176 124.837Z" fill="#E3EBF5"/>
<path d="M122.689 126.192C122.684 127.835 122.031 129.411 120.873 130.571C119.714 131.731 118.145 132.382 116.511 132.381L26.8584 132.351C25.2218 132.351 23.652 131.698 22.4937 130.535C21.3354 129.373 20.6832 127.796 20.6802 126.15L20.7065 69.4501C20.7065 66.0218 22.1057 65.0412 22.8858 64.5132L67.6708 92.5466C67.6708 92.5466 71.1181 94.7642 72.8324 94.7642C75.3231 94.7642 78.1515 92.705 78.1515 92.705L120.573 64.4491C121.14 65.7955 122.715 66.0633 122.708 69.4916L122.689 126.192Z" fill="#CEDBEB"/>
<path d="M122.689 126.191C122.684 127.835 122.031 129.41 120.873 130.57C119.714 131.73 118.145 132.381 116.511 132.38L26.8584 132.35C25.2218 132.35 23.652 131.697 22.4937 130.535C21.3354 129.372 20.6832 127.795 20.6802 126.149L20.7065 69.4493C20.7065 66.0211 21.9293 65.1235 22.8558 64.2823L67.6745 94.7296C67.6745 94.7296 70.3491 96.6153 72.0633 96.6153C73.7776 96.6153 76.726 94.4769 76.726 94.4769L120.754 64.3502C121.631 65.1461 122.715 66.0776 122.708 69.5059L122.689 126.191Z" fill="#E3EBF5"/>
<path d="M122.712 125.31C122.712 128.738 120.454 131.385 118.544 131.385L28.8917 131.355C25.4819 131.355 20.7067 129.092 20.7105 125.649L66.1969 93.7194C66.1969 93.7194 70.882 97.1137 72.5963 97.1137C73.6782 97.1137 75.6523 95.6609 76.9614 94.5891C77.7264 93.9628 78.2643 93.4667 78.2643 93.4667L122.712 125.31Z" fill="#8CA6C7"/>
<path d="M122.712 126.191C122.707 127.837 122.051 129.413 120.891 130.574C119.73 131.734 118.159 132.384 116.522 132.379L26.8696 132.349C26.0581 132.351 25.2542 132.193 24.5039 131.882C23.7535 131.571 23.0714 131.115 22.4966 130.539C21.9218 129.963 21.4654 129.28 21.1538 128.526C20.8421 127.773 20.6812 126.965 20.6802 126.149L67.6745 94.729C67.6745 94.729 70.4916 92.5603 72.2509 92.5565C74.2165 92.5565 76.7261 94.4423 76.7261 94.4423L122.712 126.191Z" fill="#E3EBF5"/>
<path d="M120.753 64.3356L120.573 64.4487C121.173 69.0008 121.251 115.601 121 124.095C120.922 126.705 121.631 130.883 112.557 131.26C106.686 131.495 30.6578 131.811 23.5269 131.388C24.519 132.032 25.6741 132.373 26.8542 132.373L116.507 132.404C118.143 132.405 119.714 131.752 120.872 130.589C122.031 129.426 122.683 127.848 122.685 126.203L122.711 69.4911C122.711 66.0629 121.631 65.1313 120.753 64.3356Z" fill="#C9DAE7"/>
<path d="M18.2478 132.521L35.3184 123.737C36.9142 122.915 37.5441 120.993 36.7673 119.368L25.1139 95.0441C24.5889 93.9462 23.6021 93.1439 22.4053 92.8484L10.9619 89.9558C8.96715 89.449 6.93043 90.5258 6.17453 92.4472L1.68117 103.849C1.24023 104.947 1.30322 106.172 1.82815 107.227L13.8174 131.064C14.6574 132.69 16.6311 133.345 18.2478 132.521Z" fill="#1E3C87"/>
<path d="M12.1798 101.822C13.9889 101.822 15.4554 100.347 15.4554 98.5282C15.4554 96.7091 13.9889 95.2345 12.1798 95.2345C10.3708 95.2345 8.9043 96.7091 8.9043 98.5282C8.9043 100.347 10.3708 101.822 12.1798 101.822Z" fill="white"/>
<path d="M18.9602 114.495C19.4885 115.579 19.6676 116.54 19.4743 117.392C19.2809 118.245 18.7159 118.87 17.8257 119.302C16.9824 119.713 16.1537 119.738 15.3632 119.365C14.5728 118.993 13.9017 118.27 13.385 117.21C12.8567 116.127 12.6776 115.164 12.8824 114.336C13.0873 113.507 13.6173 112.87 14.4841 112.448C15.3508 112.026 16.1795 112.002 16.9934 112.363C17.784 112.735 18.4435 113.435 18.9602 114.495ZM15.6219 116.149C15.8975 116.715 16.151 117.116 16.371 117.329C16.591 117.543 16.789 117.592 16.9764 117.501C17.1638 117.41 17.247 117.224 17.2143 116.919C17.1818 116.614 17.0334 116.191 16.7463 115.603C16.4707 115.037 16.2172 114.636 15.9972 114.422C15.7771 114.209 15.5791 114.159 15.3917 114.251C15.2044 114.342 15.1212 114.528 15.1538 114.832C15.1864 115.138 15.3463 115.585 15.6219 116.149ZM22.7869 108.609L22.0832 122.447L19.8812 123.52L20.5849 109.681L22.7869 108.609ZM29.3191 114.814C29.8472 115.896 30.0029 116.87 29.8096 117.722C29.6048 118.551 29.0513 119.199 28.1611 119.633C27.3178 120.044 26.4891 120.068 25.6986 119.696C24.9081 119.322 24.237 118.6 23.7318 117.564C23.2035 116.48 23.0244 115.518 23.2293 114.689C23.4341 113.861 23.9642 113.224 24.8309 112.802C25.6977 112.379 26.5263 112.355 27.3402 112.716C28.1427 113.054 28.8023 113.754 29.3191 114.814ZM25.9807 116.468C26.2562 117.034 26.5098 117.435 26.7298 117.648C26.9498 117.861 27.1478 117.911 27.3351 117.82C27.5461 117.717 27.6176 117.507 27.5621 117.156C27.4946 116.838 27.3462 116.415 27.1051 115.92C26.8639 115.426 26.6219 115.048 26.4138 114.8C26.2058 114.551 25.9614 114.466 25.7505 114.569C25.5631 114.661 25.48 114.846 25.5126 115.151C25.5452 115.456 25.705 115.903 25.9807 116.468Z" fill="white"/>
<path d="M8.65337 100.449C6.19672 100.344 3.90804 98.9503 2.87919 96.7123C0.485516 91.5183 4.223 86.4088 9.13631 86.4088C12.0339 86.4088 14.7215 88.4568 15.7714 91.1805L14.5746 90.8849C13.3987 88.309 10.1022 86.3665 6.46968 87.9923C5.18886 88.5624 4.16 89.6181 3.63508 90.9271C1.82933 95.2765 4.99989 99.4992 9.13631 99.4992C11.341 99.4992 13.3567 98.0847 14.4066 96.1211L14.4695 96.1845C14.7635 96.48 14.9525 96.6912 15.1205 97.0712L15.1625 97.1346C13.8397 99.5415 11.404 100.576 8.65337 100.449Z" fill="#ADC8DB"/>
<path d="M98.5504 12.2848C98.4347 12.8144 98.7652 13.3364 99.2918 13.4518C99.8181 13.5703 100.34 13.2367 100.46 12.7108L101.743 7.30613C101.86 6.77658 101.529 6.25456 101.003 6.13919C100.472 6.02344 99.9501 6.35384 99.8346 6.88018L98.5504 12.2848ZM105.091 15.8892C104.601 15.5343 104.491 14.8489 104.843 14.3625L108.949 8.70484C109.304 8.21561 109.99 8.10538 110.477 8.45671C110.966 8.8116 111.076 9.49697 110.725 9.98337L106.618 15.6411C106.263 16.1335 105.577 16.2405 105.091 15.8892ZM109.909 19.9981C109.648 19.5263 109.813 18.9309 110.285 18.6696L114.936 15.983C115.409 15.7216 116.004 15.8871 116.266 16.359C116.527 16.8308 116.362 17.4262 115.889 17.6876L111.238 20.3742C110.77 20.6359 110.171 20.4701 109.909 19.9981Z" fill="#00418D"/>
</svg>
