<svg xmlns="http://www.w3.org/2000/svg" width="72" height="72" viewBox="0 0 72 72"><path d="M24.24 38.663H5.656a1.14 1.14 0 0 1-1.14-1.14V29.14c0-.628.51-1.14 1.14-1.14H24.24c.628 0 1.14.512 1.14 1.14v8.386c0 .628-.512 1.136-1.14 1.136zm17.626 0H28.191c-.629 0-1.14-.512-1.14-1.14V29.14c0-.628.511-1.14 1.14-1.14h13.672c.629 0 1.14.512 1.14 1.14v8.386c0 .628-.508 1.136-1.137 1.136zm-7.603 12.015H15.68a1.14 1.14 0 0 1-1.14-1.14v-8.385c0-.629.511-1.14 1.14-1.14h18.584c.629 0 1.14.511 1.14 1.14v8.386a1.141 1.141 0 0 1-1.14 1.14z" fill="#66B6B2"/><path d="M41.867 51.717h-5.7c-.629 0-1.14-.512-1.14-1.14v-8.383c0-.628.511-1.14 1.14-1.14h5.697c.628 0 1.14.512 1.14 1.14v8.386c0 .629-.509 1.137-1.137 1.137zM24.564 62.559H5.98a1.14 1.14 0 0 1-1.14-1.14v-8.386c0-.628.511-1.14 1.14-1.14h18.584c.629 0 1.14.512 1.14 1.14v8.386a1.14 1.14 0 0 1-1.14 1.14zm17.541 0H28.433a1.14 1.14 0 0 1-1.14-1.14v-8.386c0-.628.511-1.14 1.14-1.14h13.672c.629 0 1.14.512 1.14 1.14v8.386a1.141 1.141 0 0 1-1.14 1.14zM34.67 26.718H16.084c-.629 0-1.14-.512-1.14-1.14v-8.386c0-.629.511-1.14 1.14-1.14H34.67c.63 0 1.14.511 1.14 1.14v8.386c0 .628-.51 1.14-1.14 1.14z" fill="#66B6B2"/><path d="M56.902 36.277c4.747-4.375 2.712-8.764 5.189-8.973.114 4.283 1.08 7.903-2.944 10.796l-2.245-1.823z" fill="#E79C6D"/><path d="m40.933 48.836 15.565-13.1c.492-.622 2.969 1.782 3.407 1.909a.532.532 0 0 1 .076.803l-16.87 17.544c-.65.629-1.559.845-2.298-.025l.12-7.131z" fill="#CED5E0"/><path d="M58.541 33.804c-.448-.09-.81-.499-.638-.965l2.867-8.205c.298-.895 1.854-.352 1.53.533l-2.867 8.205a.701.701 0 0 1-.892.432z" fill="#22417D"/><path d="M56.444 41.743c-.632-.431-1.673-1.044-2.197-.12l-3.591 6.083a1.012 1.012 0 0 0 .355 1.385l5.5 3.245a.361.361 0 0 1 .174.282l.597.36a1.014 1.014 0 0 0-.444-1.201l-5.497-3.245c-.825-.13 3.515-6.315 3.465-6.579.27-.498 1.006.244 1.301.352l.337-.562z" fill="#243F77"/><path d="M64.828 49.653 55.61 44.21a.791.791 0 0 1-.28-1.08c.54-.502 1.379-3.493 2.528-2.734l9.218 5.442c1.213.632-.978 2.836-1.172 3.534a.78.78 0 0 1-1.076.28z" fill="#EDF1F7"/><path d="M53.394 59.234c-.712-.308-1.442-1.013-.946-1.825l2.635-4.468a1.165 1.165 0 0 1 1.594-.41c.702.3 1.356 1.014.883 1.788l-2.674 4.531a1.09 1.09 0 0 1-1.492.384z" fill="#243F77"/><path d="m51.01 60.47-3.228-.1c-1.34-.368-.924-3.305.52-3.34.21-.012 2.458-.104 2.588-.174.854-.327 2.309-.673 3.23-.597 1.555-.095 1.231 1.968 1.31 2.934.064 1.87-3.336 1.089-4.42 1.276z" fill="#E79C6D"/><path d="M52.273 56.951c-.048-.282.05-.629.39-.635l4.316-.165c.568-.029.61 1.02.04 1.035l-4.314.165a.42.42 0 0 1-.432-.4z" fill="#E79C6D"/><path d="M52.316 57.986c-.048-.282.05-.629.39-.635l4.316-.165c.568-.029.61 1.02.04 1.035l-4.314.165a.422.422 0 0 1-.432-.4z" fill="#E79C6D"/><path d="M52.351 59.018c-.047-.283.05-.629.39-.635l4.316-.165c.568-.029.61 1.019.041 1.035l-4.315.165a.42.42 0 0 1-.432-.4z" fill="#E79C6D"/><path d="M52.394 60.053c-.048-.283.05-.629.39-.635l4.316-.165c.568-.029.61 1.02.041 1.035l-4.315.165a.418.418 0 0 1-.432-.4zm-4.157-40.546c-.92-1.892-.46-4.147-2.489-5.668l-4.023.102-.498 4.21 2.063 4.995 4.03.14c.206-.436.352-.68.133-1.16-.044-.035.232-.504.241-.543l.007-1c.736-.006 1.01-.558.536-1.076z" fill="#E79C6D"/><path d="M42.5 16.16c.169 4.233-6.48 4.398-6.524.166-.169-4.233 6.48-4.401 6.525-.166z" fill="#243F77"/><path d="M47.066 13.342c.104 4.998-7.497 5.188-7.643.19-.105-4.997 7.496-5.188 7.643-.19z" fill="#243F77"/><path d="M48.847 13.536c.092 2.305-3.534 2.397-3.556.089-.092-2.306 3.53-2.398 3.556-.09zM37.834 26.5c-2.759 1.537-3.52 1.814-5.855 3.004l-.717 33.057h12.38c.492 0 .892-.4.892-.892v-29.64" fill="#243F77"/><path d="M44.217 23.86c-1.55-.363-2.476-3.354-3.327-4.395-.312-1.441-2.197-1.152-2.023.283-.047 1.889.642 5.39-1.035 6.753l6.7 5.527-.315-8.169zm9.417 32.212-1.127 1.184c-.45.495-1.257-.206-.778-.702l1.127-1.184c.448-.495 1.258.206.778.702z" fill="#E79C6D"/><path d="m53.635 55.29 1.565.975c.66.407.06 1.286-.575.87l-1.565-.974c-.66-.407-.057-1.283.575-.87z" fill="#E79C6D"/><path d="M48.39 56.45c.918-.048.223 3.358.375 3.81.632 1.438-16.596-.356-16.866-.023-2.534.057-4.722-1.826-4.684-4.429.029-.419 2.27-21.903 2.267-22.294.251-6.045 9.123-5.639 8.618.346l-4.452 19.4a1.333 1.333 0 0 0 1.029 1.571l13.714 1.62z" fill="#EDF1F7"/><path d="M56.952 40.966c.422-.286.895-.134.685.403-.231.428-.552 1.102.09 1.356.663.333.784-.858 1.384-.553.41.235.066.677-.137.918-.759 1.305 1.286 2.381 1.978 1.057.451-.803 1.581.137.87.734-1.044 1.708 1.667 3.308 2.658 1.568.387-1.19 2.194-.454 1.578.648-.55.543.422 1.302.816.641.337-.575.93-1.511.105-1.975l-8.96-5.28c-.524-.324-1.179-.054-1.413.492l.346-.01z" fill="#5AB2A9"/><path d="M40.652 17.259c.251 1.08-.508 5.705.962 6.16l4.74 2.213c1.547.438 1.538-1.328 1.35-2.649-1.149-2.041-5.658-1.216-6.442-5.721h-.61v-.003z" fill="#243F77"/><path d="M47.374 20.605c.425-.038.613.264.587.565-.511 1.33-3.229.82-3.527.626 0-.003 1.336-1.051 2.94-1.191z" fill="#243F77"/></svg>