<svg xmlns="http://www.w3.org/2000/svg" width="32" height="88" fill="none" viewBox="0 0 32 88">
  <path fill="#fff" fill-rule="evenodd" d="M16 31C7.716 31 1 24.284 1 16 1 7.716 7.716 1 16 1c8.284 0 15 6.716 15 15 0 8.284-6.716 15-15 15Zm0-2.143c7.1 0 12.857-5.756 12.857-12.857 0-7.1-5.756-12.857-12.857-12.857C8.9 3.143 3.143 8.899 3.143 16c0 7.1 5.756 12.857 12.857 12.857Zm-4.84-10.584c-1.393-.66-2.273-2.713-2.273-4.326 0-3.52 2.566-6.747 7.333-6.747 3.813 0 6.82 2.787 6.893 6.453 0 3.814-2.42 6.894-5.793 6.894-1.173 0-2.2-.587-2.567-1.247 0 0-.513 2.127-.66 2.64-.307 1.23-1.337 2.82-1.704 3.389-.07.11-.117.18-.129.204-.073.074-.22.074-.22-.073 0-.023-.011-.104-.028-.228-.091-.662-.354-2.571-.045-3.805.22-.807 1.32-5.5 1.32-5.5s-.367-.66-.367-1.614c0-1.54.88-2.713 1.98-2.713.953 0 1.393.66 1.393 1.54 0 .573-.238 1.305-.492 2.085-.169.517-.344 1.055-.461 1.582-.293 1.1.513 1.98 1.613 1.98 1.98 0 3.52-2.054 3.52-5.06 0-2.714-1.906-4.547-4.62-4.547-3.153 0-4.986 2.42-4.986 4.84 0 .953.366 1.98.88 2.567.073.073.073.146.073.293-.073.367-.22 1.1-.293 1.247-.074.22-.147.22-.367.146Z" clip-rule="evenodd"/>
  <path fill="#BD081C" d="M16 87C7.716 87 1 80.284 1 72c0-8.284 6.716-15 15-15 8.284 0 15 6.716 15 15 0 8.284-6.716 15-15 15Z"/>
  <path fill="#fff" fill-rule="evenodd" d="M9.21 70.04c0 1.54.84 3.5 2.17 4.13.21.07.28.07.35-.14.07-.14.21-.84.28-1.19 0-.14 0-.21-.07-.28-.49-.56-.84-1.54-.84-2.45 0-2.31 1.75-4.62 4.76-4.62 2.59 0 4.41 1.75 4.41 4.34 0 2.87-1.47 4.83-3.36 4.83-1.05 0-1.82-.84-1.54-1.89.28-1.26.91-2.59.91-3.5 0-.84-.42-1.47-1.33-1.47-1.05 0-1.89 1.12-1.89 2.59 0 .91.35 1.54.35 1.54s-1.05 4.48-1.26 5.25c-.35 1.4.07 3.71.07 3.85 0 .14.14.14.21.07.07-.14 1.4-2.03 1.75-3.43.14-.49.63-2.52.63-2.52.35.63 1.33 1.19 2.45 1.19 3.22 0 5.53-2.94 5.53-6.58-.07-3.5-2.94-6.16-6.58-6.16-4.55 0-7 3.08-7 6.44Z" clip-rule="evenodd"/>
</svg>
