<?xml version="1.0" encoding="utf-8"?>
<!-- Generator: Adobe Illustrator 23.0.3, SVG Export Plug-In . SVG Version: 6.00 Build 0)  -->
<svg version="1.1" id="Component_30_3" xmlns="http://www.w3.org/2000/svg" xmlns:xlink="http://www.w3.org/1999/xlink" x="0px"
	 y="0px" viewBox="0 0 162 42" style="enable-background:new 0 0 162 42;" xml:space="preserve">
<style type="text/css">
	.st0{fill:#FDFEFF;}
	.st1{fill:#F7F8F9;}
	.st2{fill:#F87B39;}
</style>
<path class="st0" d="M86.2,6.2c5.5,0.7,8.4,7.5,4.7,12c-0.9,1.1-1.5,1.3-2.6,2c-0.2,0.1-0.3-0.1-0.2,0.3l5.8,5.9l0.2,0.6
	c0,0.3-0.2,0.4-0.5,0.5c-0.6,0.1-5.3,0.1-5.6-0.1l-6.3-7.1c-0.4-1-0.7-2.6,0.1-3.5c1.4-1.6,5.9,0.4,5.9-3.1c0-1-1-2.4-2-2.4H56.6
	c-0.3,0-0.5-0.8-0.5-1c-0.1-0.6-0.2-3.9,0.5-3.9h29.6V6.2z"/>
<path class="st0" d="M120.3,14.5l-5,12.8c-0.2,0.2-0.4,0.2-0.7,0.3c-0.5,0.1-4.3,0-4.5-0.1s-0.4-0.6-0.3-0.8
	c2.7-6.2,4.4-13.1,7-19.3c0.1-0.2,0.2-0.7,0.4-0.9c0.3-0.3,4.4-0.4,5-0.2c0.4,0.1,0.6,0.4,0.8,0.7l7.4,19.7l-0.2,0.7
	c-0.1,0.2-0.4,0.2-0.6,0.2c-0.8,0.1-3.2,0.1-4,0c-0.3,0-0.5,0-0.7-0.3L120.3,14.5z"/>
<path class="st0" d="M54.5,27.5c-0.2-0.1-0.7-0.7-0.8-1l-4.4-11.9c-0.5,0-0.7,1-0.8,1.3c-1.4,3.6-2.6,7.2-3.9,10.8
	c-0.1,0.2-0.6,0.7-0.6,0.7h-4.9l-0.1-1l7.3-19.9c0.2-0.4,0.6-0.4,0.9-0.4C47.9,6,51.3,6,51.8,6.3c0.2,0.1,0.5,0.5,0.6,0.8
	c2.6,6,4.2,13.1,6.9,19.1c0.1,0.4,0.2,0.9-0.2,1.2L54.5,27.5L54.5,27.5z"/>
<path class="st0" d="M113.7,6.2c0.1,0,0.3,0.3,0.3,0.5l-7.8,14c-0.4,1.4,0.4,5.5-0.2,6.4c-0.3,0.5-4.3,0.5-4.7,0.1
	c-0.9-0.7-0.2-5.3-0.6-6.7L93.1,7.2c-0.2-0.7-0.1-0.9,0.6-1c0.6-0.1,4.7-0.1,5.1,0.1c0.9,0.7,4.3,8.5,4.9,8.3
	c0.5-0.1,3.7-7.7,4.8-8.4C108.5,6.2,113.7,6.2,113.7,6.2z"/>
<path class="st0" d="M25.7,19.7l2.5-5.7c0.3,2.5,1.9,5.2,2.3,7.6c0.1,0.7-1.3,3.9-1.7,4.7c-0.2,0.4-0.4,0.9-0.7,1.2
	c-0.3,0.2-3.9,0.2-4.5,0.1c-0.3,0-0.6-0.1-0.8-0.4c-1.4-3-3.3-5.9-4.7-8.9c-1.3-2.9-3.3-7.4-4.2-10.4c-0.1-0.4-0.6-1.2,0-1.5
	c0.2-0.1,4.4-0.2,4.9-0.1c0.8,0.1,1,0.6,1.3,1.2c1.9,3.6,3.1,8.1,4.9,11.8C25,19.6,25.3,19.7,25.7,19.7"/>
<path class="st0" d="M31.8,19.6c0-0.1-0.3-0.5-0.4-0.8C31,17.4,29,11.9,29.2,11c0.2-0.6,1.3-3.1,1.6-3.8C31,7,31.2,6.7,31.4,6.4
	c0.4-0.3,4.2-0.3,5-0.2c0.8,0.1,0.8,0.5,0.9,1.2c0.5,6-0.4,12.7,0,18.8c0,0.5-0.1,1.1-0.7,1.2c-0.5,0.1-3.5,0.1-4,0
	c-0.2,0-0.7-0.3-0.7-0.5v-7.3H31.8z"/>
<path class="st0" d="M13.9,27.5l-0.5-1V12.6c0.6,0.6,1,1.8,1.3,2.6c1.2,3,3.2,7.6,3.9,10.6c0.1,0.6,0.3,1.3-0.2,1.7
	C18.4,27.5,13.9,27.5,13.9,27.5z"/>
<path class="st0" d="M133.1,20.6h2.9c0.6,0,1.1-0.5,1.1-1.1V7.4c0-0.6-0.5-1.1-1.1-1.1h-2.9c-0.6,0-1.1,0.5-1.1,1.1v12.1
	C132,20.1,132.5,20.6,133.1,20.6"/>
<path class="st0" d="M75.7,27.4h2.9c0.6,0,1.1-0.5,1.1-1.1v-9.6c0-0.6-0.5-1.1-1.1-1.1h-2.9c-0.6,0-1.1,0.5-1.1,1.1v9.6
	C74.6,26.9,75.1,27.4,75.7,27.4"/>
<path class="st0" d="M64.3,27.4h2.9c0.6,0,1.1-0.5,1.1-1.1v-9.6c0-0.6-0.5-1.1-1.1-1.1h-2.9c-0.6,0-1.1,0.5-1.1,1.1v9.6
	C63.2,26.9,63.7,27.4,64.3,27.4"/>
<path class="st1" d="M132,23.8v2.6c0,0.6,0.5,1.1,1.1,1.1h14.3c0.6,0,1.1-0.5,1.1-1.1v-2.6c0-0.6-0.5-1.1-1.1-1.1h-14.3
	C132.5,22.7,132,23.2,132,23.8"/>
<path class="st1" d="M122.4,24.4c0,1.2-1,2.2-2.2,2.2s-2.2-1-2.2-2.2s1-2.2,2.2-2.2S122.4,23.1,122.4,24.4"/>
<path class="st1" d="M51.4,24.2c0,1.2-1,2.2-2.2,2.2s-2.2-1-2.2-2.2s1-2.2,2.2-2.2S51.4,23,51.4,24.2"/>
<path class="st2" d="M55,30.1c-0.1-0.2,0.1-0.4,0.3-0.4h49.8c0,0,0.5,0.1,0.2,0.8l-3.4,7.1c0,0-0.5,0.5-1-0.2l-4.4-3.9h-40
	c-0.1,0-0.2-0.1-0.3-0.2L55,30.1z"/>
</svg>
